<?xml version="1.0" encoding="UTF-8"?>
<svg version="1.1" xmlns="http://www.w3.org/2000/svg" width="348" height="354">
<path d="M0 0 C1.70786327 -0.00599375 3.41572385 -0.01280122 5.12358093 -0.02035522 C9.73970013 -0.03794034 14.35574505 -0.04270755 18.9718945 -0.0439868 C21.86431148 -0.04541368 24.7567099 -0.04969349 27.64912224 -0.05498123 C37.76414044 -0.07345964 47.87910611 -0.08165495 57.99414062 -0.08007812 C67.38262668 -0.07887865 76.77088215 -0.09994858 86.15930992 -0.13156545 C94.25144091 -0.1578334 102.34349709 -0.16844097 110.43567032 -0.16716731 C115.25453975 -0.16666058 120.07320423 -0.17218154 124.89203072 -0.19352341 C129.43205455 -0.21308299 133.9716817 -0.21291103 138.51172066 -0.19849014 C140.16391591 -0.19642241 141.81613716 -0.20097899 143.46828842 -0.21321106 C170.48384503 -0.40002984 195.80230769 8.99933428 215.52636719 27.69189453 C229.30122934 41.31305321 237.93450513 57.78587054 242.97827148 76.29052734 C243.15880381 76.9510356 243.33933613 77.61154387 243.52533913 78.29206753 C245.50875708 86.73302769 245.27465013 95.24970425 245.26879883 103.86303711 C245.27479204 105.63001283 245.2815994 107.39698595 245.28915405 109.16395569 C245.30674438 113.94122626 245.31150659 118.71842508 245.31278563 123.49572492 C245.31421218 126.48864747 245.3184914 129.48155207 245.32378006 132.47447014 C245.34226006 142.93961611 245.35045356 153.4047113 245.34887695 163.86987305 C245.34767737 173.5855453 245.36874893 183.30099475 245.40036428 193.01661068 C245.4266261 201.38899377 245.43724006 209.76130455 245.43596613 218.13372844 C245.43545924 223.12026914 245.44098988 228.10661181 245.46232224 233.09311104 C245.48187139 237.79071962 245.48171671 242.48794472 245.46728897 247.18556786 C245.46521999 248.89581496 245.46978554 250.60608714 245.48200989 252.31629181 C245.66375881 279.53769827 236.4379344 304.93679714 217.5769043 324.83862305 C199.49186163 343.12774041 174.7796996 354.36512772 149.0245868 354.5758183 C146.66853804 354.58410073 144.31260415 354.58271198 141.95654297 354.58105469 C140.2486797 354.58704844 138.54081912 354.59385591 136.83296204 354.60140991 C132.21684284 354.61899503 127.60079792 354.62376223 122.98464847 354.62504148 C120.09223149 354.62646836 117.19983307 354.63074817 114.30742073 354.63603592 C104.19240253 354.65451432 94.07743686 354.66270964 83.96240234 354.66113281 C74.57391628 354.65993334 65.18566082 354.68100327 55.79723305 354.71262014 C47.70510206 354.73888808 39.61304588 354.74949566 31.52087265 354.74822199 C26.70200322 354.74771527 21.88333874 354.75323623 17.06451225 354.77457809 C12.52448842 354.79413767 7.98486127 354.79396572 3.44482231 354.77954483 C1.79262706 354.7774771 0.14040581 354.78203367 -1.51174545 354.79426575 C-28.52730207 354.98108453 -53.84576472 345.58172041 -73.56982422 326.88916016 C-87.34468638 313.26800147 -95.97796217 296.79518415 -101.02172852 278.29052734 C-101.292527 277.29976495 -101.292527 277.29976495 -101.56879616 276.28898716 C-103.55221411 267.848027 -103.31810716 259.33135044 -103.31225586 250.71801758 C-103.31824908 248.95104186 -103.32505643 247.18406874 -103.33261108 245.417099 C-103.35020141 240.63982842 -103.35496362 235.86262961 -103.35624266 231.08532977 C-103.35766922 228.09240722 -103.36194843 225.09950262 -103.36723709 222.10658455 C-103.38571709 211.64143858 -103.39391059 201.17634339 -103.39233398 190.71118164 C-103.39113441 180.99550939 -103.41220596 171.28005994 -103.44382131 161.56444401 C-103.47008313 153.19206092 -103.48069709 144.81975014 -103.47942317 136.44732624 C-103.47891627 131.46078555 -103.48444691 126.47444288 -103.50577927 121.48794365 C-103.52532842 116.79033507 -103.52517374 112.09310997 -103.510746 107.39548683 C-103.50867703 105.68523973 -103.51324257 103.97496755 -103.52546692 102.26476288 C-103.70721584 75.04335642 -94.48139143 49.64425755 -75.62036133 29.74243164 C-54.87788106 8.76588969 -28.87453693 -0.02031085 0 0 Z " fill="#5A33FF" transform="translate(103.021728515625,-0.29052734375)"/>
<path d="M0 0 C5.61 0 11.22 0 17 0 C17.11616583 14.3783799 17.20485358 28.75664702 17.25906086 43.13540173 C17.28474995 49.81301819 17.32035454 56.49029228 17.37719727 63.16772461 C17.4317694 69.61925208 17.46147391 76.07047049 17.47438622 82.52221107 C17.48358086 84.97604546 17.50153533 87.42986411 17.52865028 89.8835659 C17.7057104 106.57951785 17.82033927 120.24238105 5.46484375 132.90625 C-2.29311915 139.49621532 -11.77586976 142.3922584 -21.875 142.25 C-22.57898926 142.24250732 -23.28297852 142.23501465 -24.00830078 142.22729492 C-34.81308543 142.00422036 -44.6737264 139.29805316 -52.8125 131.8125 C-59.59651444 124.3869712 -61.61994517 116.8814257 -62 107 C-56.39 107 -50.78 107 -45 107 C-44.773125 108.36125 -44.54625 109.7225 -44.3125 111.125 C-43.26264599 115.67436739 -41.76022601 119.09597569 -38 122 C-31.38494321 125.83291196 -24.5592932 127.2168093 -17 126 C-10.38395082 123.95486799 -6.21402365 121.02876136 -2.83984375 114.96484375 C-1.32615052 111.42350564 -0.87273128 108.21867932 -0.84178162 104.38092041 C-0.8319928 103.45827896 -0.82220398 102.53563751 -0.81211853 101.58503723 C-0.80636307 100.58018784 -0.8006076 99.57533844 -0.79467773 98.54003906 C-0.78477814 97.47631577 -0.77487854 96.41259247 -0.76467896 95.31663513 C-0.73308433 91.79965442 -0.70831446 88.2826602 -0.68359375 84.765625 C-0.66302247 82.32753142 -0.64202596 79.88944139 -0.62062073 77.45135498 C-0.56541804 71.03329342 -0.51600074 64.61519978 -0.46777344 58.19708252 C-0.41754531 51.64828637 -0.36186608 45.09953683 -0.30664062 38.55078125 C-0.19908107 25.70056066 -0.09763114 12.85029959 0 0 Z " fill="#FBFAFF" transform="translate(190,106)"/>
</svg>
